<?xml version="1.0" encoding="UTF-8"?>
<svg id="logo" data-name="logo" xmlns="http://www.w3.org/2000/svg" viewBox="0 0 1000 1000">
  <path fill="currentColor" stroke-width="0" d="m774.42,442.37c0,.74-.19,1.51-.58,2.3l-230.08,429.12c-9.38,17.49-34.45,17.49-43.83,0l-230.1-429.12c-.4-.79-.58-1.56-.58-2.3,0-.7.19-1.4.47-2,.74-1.56,2.35-2.65,4.05-2.75,1.14-.09,2.33.28,3.4,1.19l.6.54,244.09,212.01,24.36-21.17,219.71-190.84.6-.54c3.33-2.88,7.91-.14,7.91,3.56Z"/>
  <path fill="currentColor" stroke-width="0" d="m877.97,162.31l-137.64,257.4c-.46.86-1.08,1.63-1.81,2.27l-198.6,172.5c-12.8,11.12-31.83,11.12-44.63,0l-122.19-110.98c-8.55-7.43-7.74-20.94,1.63-27.3l282.23-205.74c3.6-2.62,4.37-7.67,1.72-11.25h0c-2.48-3.36-7.12-4.25-10.67-2.05l-304.98,188.95c-8.41,5.02-18.81,5.3-27.41.67l-34.56-18.42h-.03l-12.7-6.78-140.54-77.25c-14.55-7.76-12.45-29.24,3.34-34.03l40.86-12.38c.14-.04.28-.08.42-.11L838.81,114.6c28.48-8.63,53.18,21.47,39.16,47.71Z"/>
</svg>